<svg xmlns="http://www.w3.org/2000/svg" viewBox="0 0 16 16">
  <path fill="#dbe6e9" d="M6.25 1.25 7 1v1l-.75.25-.5-.5M7 1h1v1H7m1-1h1v1H8m1-1 .75.25.5.5-.5.5L9 2m-4.75.25L5 2v1l-.75.25-.5-.5M5 2l.75-.25.5.5L6 3H5m1.25-.75L7 2v1H6m1-1h1v1H7m1-1h1v1H8m1-1 .75.25L10 3H9m.75-.75.5-.5L11 2v1h-1m1-1 .75.25.5.5-.5.5L11 3m-7.75.25.5-.5.5.5L4 4H3m1.25-.75L5 3v1H4m1-1h1v1H5m1-1h1v1H6m1-1h1v1H7m1-1h1v1H8m1-1h1v1H9m1-1h1v1h-1m1-1 .75.25L12 4h-1m.75-.75.5-.5.5.5L13 4h-1M3 4h1v1l-.75.25-.5-.5M4 4h1v1H4m1-1h1v1H5m1-1h1v1H6m1-1h1v1H7m1-1h1v1H8m1-1h1v1H9m1-1h1v1h-1m1-1h1v1h-1m1-1h1l.25.75-.5.5L12 5m-9.75.25.5-.5.5.5-.5.5L2 6m1.25-.75L4 5v1l-.75.25-.5-.5M4 5h1v1H4m1-1h1v1H5m1-1h1v1H6m1-1h1v1H7m1-1h1v1H8m1-1h1v1H9m1-1h1v1h-1m1-1h1v1h-1m1-1 .75.25.5.5-.5.5L12 6m.75-.75.5-.5.5.5L14 6l-.75-.25M2 6l.75-.25.5.5v.5l-.5.5L2 7m10.75-.75.5-.5L14 6v1l-.75.25-.5-.5M2 7l.75.25.5.5-.5.5-.5-.5m.5-.5.5-.5L4 7l-.25.75h-.5M4 7h1v1l-.75.25-.5-.5M5 7h1v1H5m1-1h1l.25.75-.5.5L6 8m1-1h1v1l-.75-.25M8 7h1l-.25.75L8 8m1-1h1v1l-.75.25-.5-.5M10 7h1v1h-1m1-1h1l.25.75-.5.5L11 8m1-1 .75-.25.5.5-.5.5h-.5m1-.5L14 7l-.25.75-.5.5-.5-.5m-10 .5.5-.5h.5l.5.5L4 9l-.75.25-.5-.5m4-.5.5-.5L8 8v1H7m1-1 .75-.25.5.5L9 9H8m3.75-.75.5-.5h.5l.5.5v.5l-.5.5L12 9m-9.75.25.5-.5.5.5v.5l-.5.5-.5-.5m1-.5L4 9l.25.75-.5.5-.5-.5M7 9h1v1H7m1-1h1v1H8m4-1 .75.25v.5l-.5.5-.5-.5m1-.5.5-.5.5.5v.5l-.5.5-.5-.5m-10 .5.5-.5.5.5L4 11H3m.75-.75.5-.5.5.5L5 11H4m3-1h1v1l-.75-.25M8 10h1l-.25.75L8 11m3.25-.75.5-.5.5.5L12 11h-1m1.25-.75.5-.5.5.5L13 11h-1m-9 0h1v1H3m1-1h1v1H4m7-1h1v1h-1m1-1h1v1h-1m-9 0h1l.25.75-.5.5-.5-.5M4 12h1v1l-.75-.25M11 12h1l-.25.75L11 13m1-1h1l-.25.75-.5.5-.5-.5m-8 .5.5-.5L5 13v1H4m7-1 .75-.25.5.5L12 14h-1m-7 0h1l-.25.75h-.5M11 14h1l-.25.75h-.5"/>
</svg>
