<svg xmlns="http://www.w3.org/2000/svg" viewBox="0 0 16 16">
  <path fill="#dbe6e9" d="M7.25 2.25 8 2v1l-.75.25-.5-.5M8 2l.75.25.5.5-.5.5L8 3m-2.75.25L6 3l.25.75-.5.5-.5-.5M6 3l.75-.25.5.5v.5l-.5.5-.5-.5m2.5-.5.5-.5L10 3l-.25.75-.5.5-.5-.5M10 3l.75.25v.5l-.5.5-.5-.5m-4 .5.5-.5.5.5L7 5H6m.75-.75.5-.5L8 4v1H7m1-1 .75-.25.5.5L9 5H8m1.25-.75.5-.5.5.5L10 5H9M6 5h1l.25.75-.5.5-.5-.5M7 5h1v1l-.75-.25M8 5h1l-.25.75L8 6m1-1h1l-.25.75-.5.5-.5-.5m-2 .5.5-.5L8 6v1l-.75.25-.5-.5M8 6l.75-.25.5.5v.5l-.5.5L8 7m-1.75.25.5-.5.5.5-.5.5h-.5m2.5-.5.5-.5.5.5v.5h-.5"/>
  <path fill="#8f8e8a" d="m4.25 5.25-.5.5-.5.5-.5.5-.5.5L2 8v2l.25.75.5.5.5.5.5.5.5.5L5 13l.75.25.5.5L7 14h1v-.004l.004.004h1l.75-.25.5-.5.75-.25.75-.25.5-.5.496-.5.5-.5.5-.5L14 10V8l-.25-.75-.5-.5-.5-.5-.5-.5-.5-.5h-.5L11 6l.25.75L12 7l.75.25L13 8v2l-.25.75-.5.5-.5.5-.746.25-.75.25-.5.5-.75.25h-1L8 13.006V13H7l-.75-.25-.5-.5L5 12l-.75-.25-.5-.5-.5-.5L3 10V8l.25-.75L4 7l.75-.25L5 6l-.25-.75Z"/>
</svg>
