<svg xmlns="http://www.w3.org/2000/svg" viewBox="0 0 16 16">
  <path fill="#dbe6e9" d="M6.25 2.25 7 2v1l-.75.25-.5-.5M7 2h1v1H7m1-1h1v1H8m1-1 .75.25.5.5-.5.5L9 3m-3.75.25.5-.5.5.5L6 4l-.75.25-.5-.5m5-.5.5-.5.5.5.5.5-.5.5L10 4m-6.75.25L4 4v1l-.75.25-.5-.5M4 4l.75-.25.5.5L5 5H4m1.25-.75L6 4l.25.75-.5.5L5 5m5-1 .75.25L11 5l-.75.25-.5-.5m1-.5.5-.5L12 4v1h-1m1-1 .75.25.5.5-.5.5L12 5m-9.75.25.5-.5.5.5L3 6H2m1.25-.75L4 5v1H3m1-1h1v1H4m1-1 .75.25L6 6H5m.75-.75.5-.5.5.5L7 6H6m3.25-.75.5-.5.5.5L10 6H9m1.25-.75L11 5v1h-1m1-1h1v1h-1m1-1 .75.25L13 6h-1m.75-.75.5-.5.5.5L14 6h-1M2 6h1v1H2m1-1h1l-.25.75L3 7m1-1h1l.25.75-.5.5h-.5l-.5-.5M5 6h1v1l-.75-.25M6 6h1v1H6m3-1h1v1H9m1-1h1l-.25.75L10 7m1-1h1l.25.75-.5.5h-.5l-.5-.5M12 6h1v1l-.75-.25M13 6h1v1h-1M2 7h1v1H2m1-1 .75-.25.5.5L4 8H3m1.75-.75.5-.5L6 7v1H5m1-1h1v1H6m3-1h1v1H9m1-1 .75-.25.5.5L11 8h-1m1.75-.75.5-.5L13 7v1h-1m1-1h1v1h-1M2 8h1v1H2m1-1h1v1H3m2-1h1v1H5m1-1h1v1H6m3-1h1v1H9m1-1h1v1h-1m2-1h1v1h-1m1-1h1v1h-1M2 9h1v1l-.75-.25M3 9h1l-.25.75L3 10m2-1h1v1H5m1-1h1v1H6m3-1h1v1H9m1-1h1v1h-1m2-1h1v1l-.75-.25M13 9h1l-.25.75L13 10m-8 0h1v1l-.75.25-.5-.5M6 10h1v1H6m3-1h1v1H9m1-1h1l.25.75-.5.5L10 11m-5.75.25.5-.5.5.5L5 12H4m1.25-.75L6 11v1H5m1-1h1v1H6m3-1h1v1H9m1-1 .75.25.25.75h-1m.75-.75.5-.5.5.5.25.75h-1m-7 0h1l.25.75-.5.5-.5-.5M5 12h1v1l-.75-.25M6 12h1v1H6m3-1h1v1H9m1-1h1l-.25.75L10 13m1-1h1l-.25.75-.5.5-.5-.5m-6 .5.5-.5L6 13v1l-.75-.25M6 13h1l-.25.75L6 14m3-1h1v1l-.75-.25M10 13l.75-.25.5.5-.5.5L10 14"/>
</svg>
