<svg xmlns="http://www.w3.org/2000/svg" viewBox="0 0 16 16">
  <path fill="#d1e8e9" d="M11.25 2.25 12 2l.25.75-.5.5L11 3m1-1 .75.25L13 3l-.75-.25m-8 .5L5 3v1l-.75.25-.5-.5M5 3l.75.25.5.5-.5.5L5 4m6.75-.75.5-.5L13 3l-.25.75L12 4m-8.75.25.5-.5.5.5L4 5H3m2.75-.75.5-.5.5.5v.5h-.5m4-.5L11 4v1l-.75.25-.5-.5m3.5-.5L14 4v1h-1m1-1 .75.25L15 5h-1M3 5h1v1H3m5.25-.75L9 5l.25.75-.5.5h-.5l-.5-.5M9 5l.75-.25.5.5L10 6l-.75-.25M14 5h1l-.25.75-.5.5-.5-.5M3 6h1v1H3m4.25-.75.5-.5.5.5-.5.5-.5.5-.5-.5m2-.5.5-.5L10 6v1l-.75-.25M12 6l.75-.25.5.5L13 7l-.75.25-.5-.5M3 7h1v1H3m3.25-.75.5-.5.5.5-.5.5-.5.5-.5-.5M10 7h1v1l-.75.25-.5-.5M11 7l.75-.25.5.5L12 8h-1M3 8h1l.25.75-.5.5-.5-.5m2-.5.5-.5.5.5-.5.5-.5.5-.5-.5m4.5-.5.5-.5.5.5L10 9l-.75.25-.5-.5m1.5-.5L11 8l-.25.75L10 9m1-1h1l-.25.75-.5.5-.5-.5m-7 .5.5-.5h.5l.5.5-.5.5-.5.5-.5-.5m4.5-.5.5-.5.5.5L9 10l-.75.25-.5-.5m1.5-.5L10 9l-.25.75L9 10m1-1 .75-.25.5.5-.5.5-.5.5-.5-.5m-6.5.5.5-.5.5.5-.5.5-.5.5-.5-.5m4.5-.5.5-.5.5.5L8 11l-.75.25-.5-.5m1.5-.5L9 10l-.25.75L8 11m1-1 .75-.25.5.5-.5.5-.5.5-.5-.5m-6.5.5.5-.5.5.5L3 12H2m4.25-.75.5-.5.5.5L7 12l-.75.25-.5-.5m1.5-.5L8 11l-.25.75L7 12m1-1 .75-.25.5.5-.5.5-.5.5-.5-.5M2 12h1v1H2m3.25-.75.5-.5.5.5L6 13l-.75.25-.5-.5m1.5-.5L7 12l-.25.75L6 13m1-1 .75-.25.5.5-.5.5-.5.5-.5-.5M2 13h1l.25.75-.5.5L2 14m2.25-.75.5-.5.5.5L5 14l-.75.25-.5-.5m1.5-.5L6 13l-.25.75L5 14m1-1 .75-.25.5.5-.5.5-.5.5-.5-.5M2 14l.75.25L3 15l-.75-.25m.5-.5.5-.5h.5l.5.5L4 15H3m1.25-.75L5 14v1H4m1-1 .75-.25.5.5-.5.5L5 15"/>
</svg>
