<svg xmlns="http://www.w3.org/2000/svg" viewBox="0 0 16 16">
  <path fill="#8f8e8a" d="M4.25 10.25h.5l.5.5-.5.5h-.5l-.5-.5m-.5.5.5-.5.5.5v.5l-.5.5h-.5l-.5-.5m1.5-.5h.5v.5h-.5m.5-.5.5-.5.5.5v.5l-.5.5-.5-.5m-2.5.5.5-.5.5.5v.5l-.5.5-.5-.5m1.5-.5.5-.5h.5l.5.5-.5.5-.5.5-.5-.5m-1 .5.5-.5h.5l.5.5-.5.5h-.5"/>
  <path fill="#dbe6e9" d="M13.25 1.25 14 1v1l-.75.25-.5-.5M14 1l.75.25L15 2h-1m-1.75.25.5-.5.5.5L13 3l-.75.25-.5-.5m1.5-.5L14 2l-.25.75L13 3m1-1h1l-.25.75-.5.5-.5-.5m-2.5.5.5-.5.5.5L12 4l-.75.25-.5-.5m1.5-.5L13 3l-.25.75L12 4m1-1 .75-.25.5.5-.5.5-.5.5-.5-.5m-2.5.5.5-.5.5.5L11 5l-.75.25-.5-.5m1.5-.5L12 4l-.25.75L11 5m1-1 .75-.25.5.5-.5.5-.5.5-.5-.5m-2.5.5.5-.5.5.5L10 6l-.75.25-.5-.5m1.5-.5L11 5l-.25.75L10 6m1-1 .75-.25.5.5-.5.5-.5.5-.5-.5m-2.5.5.5-.5.5.5L9 7l-.75.25-.5-.5m1.5-.5L10 6l-.25.75L9 7m1-1 .75-.25.5.5-.5.5-.5.5-.5-.5m-2.5.5.5-.5.5.5L8 8l-.75.25-.5-.5m1.5-.5L9 7l-.25.75L8 8m1-1 .75-.25.5.5-.5.5-.5.5-.5-.5m-6.5.5h.5l.5.5-.5.5-.5-.5m4-.5.5-.5.5.5L7 9l-.75.25-.5-.5m1.5-.5L8 8l-.25.75L7 9m1-1 .75-.25.5.5-.5.5-.5.5-.5-.5m-5 .5.5-.5.5.5v.5h-.5m2-.5.5-.5.5.5v.5l-.5.5-.5-.5m1-.5L7 9l-.25.75h-.5M7 9l.75-.25.5.5-.5.5-.5.5-.5-.5m-1 .5.5-.5h.5l.5.5-.5.5h-.5m0 1.5h.5l.5.5-.5.5-.5-.5m-5 .5h.5l.5.5-.5.5L1 14m5.75-.75.5-.5.5.5v.5h-.5M1 14l.75.25L2 15l-.75-.25m.5-.5.5-.5.5.5v.5L2 15"/>
</svg>
