<svg xmlns="http://www.w3.org/2000/svg" viewBox="0 0 16 16">
  <path fill="#dbe6e9" d="M7.25 10.25 8 10v1l-.75.25-.5-.5M8 10l.75.25.5.5-.5.5L8 11m-1.75.25.5-.5.5.5v.5l-.5.5-.5-.5m1-.5L8 11v1l-.75-.25M8 11l.75.25v.5L8 12m.75-.75.5-.5.5.5v.5l-.5.5-.5-.5m-2 .5.5-.5L8 12v1H7m1-1 .75-.25.5.5L9 13H8m-1 0h1v1l-.75-.25M8 13h1l-.25.75L8 14"/>
  <path fill="#8f8e8a" d="M6.25 2.25 7 2v1l-.75.25-.5-.5M7 2h1v1H7m1-1h1v1H8m1-1 .75.25.5.5-.5.5L9 3m-4.75.25L5 3v1l-.75.25-.5-.5M5 3l.75-.25.5.5-.5.5L5 4m4.75-.75.5-.5L11 3v1l-.75-.25M11 3l.75.25.5.5-.5.5L11 4m-7.75.25.5-.5.5.5-.5.5-.5.5-.5-.5m9-.5.5-.5.5.5.5.5-.5.5-.5-.5m-10 .5.5-.5.5.5L3 6H2m10.75-.75.5-.5.5.5L14 6h-1M2 6h1l.25.75-.5.5-.5-.5M13 6h1l-.25.75-.5.5-.5-.5m-10 .5.5-.5.5.5L4 8H3m9.25-.75.5-.5.5.5L13 8h-1M3 8h1l.25.75-.5.5-.5-.5M12 8h1l-.25.75-.5.5-.5-.5m-8 .5.5-.5L5 9v1l-.75-.25M5 9l.75.25v.5L5 10m5.25-.75L11 9v1l-.75-.25M11 9l.75-.25.5.5-.5.5L11 10"/>
</svg>
