<svg xmlns="http://www.w3.org/2000/svg" viewBox="0 0 16 16">
  <path fill="#d1e8e9" d="M13.25 1.25 14 1l.25.75-.5.5-.5-.5M14 1l.75.25L15 2l-.75-.25m-.5.5.5-.5L15 2v1h-1m-1.75.25h.5v.5l-.5.5-.5-.5M14 3h1v1h-1m-2.75.25.5-.5.5.5-.5.5-.5.5-.5-.5M14 4h1v1h-1m-3.75.25.5-.5.5.5-.5.5-.5.5-.5-.5M14 5h1v1l-.75.25-.5-.5m-4.5.5.5-.5.5.5-.5.5-.5.5-.5-.5m4.5-.5.5-.5.5.5-.5.5L13 7m1.25-.75L15 6l-.25.75-.5.5-.5-.5m-5.5.5.5-.5.5.5-.5.5-.5.5-.5-.5M13 7l.75-.25.5.5L14 8h-1m-5.75.25.5-.5.5.5-.5.5-.5.5-.5-.5M13 8h1v1l-.75.25-.5-.5m-6.5.5.5-.5.5.5-.5.5-.5.5-.5-.5m6.5-.5.5-.5.5.5-.5.5L12 10m1.25-.75L14 9l-.25.75-.5.5-.5-.5m-7.5.5.5-.5.5.5-.5.5-.5.5-.5-.5M12 10l.75-.25.5.5L13 11l-.75.25-.5-.5m-7.5.5.5-.5.5.5-.5.5-.5.5-.5-.5m7.5-.5.5-.5.5.5-.5.5-.5.5-.5-.5m1.5-.5L13 11l-.25.75-.5.5-.5-.5m-8.5.5.5-.5.5.5-.5.5h-.5m6-.5L10 12l-.25.75-.5.5-.5-.5M10 12l.75-.25.5.5L11 13l-.75.25-.5-.5m1.5-.5.5-.5.5.5-.5.5L11 13m-9.75.25h.5l.5.5-.5.5L1 14m5.25-.75L7 13l-.25.75-.5.5-.5-.5M7 13h1v1l-.75.25-.5-.5M8 13l.75-.25.5.5L9 14H8m1.25-.75.5-.5.5.5-.5.5L9 14m-8 0 .75.25L2 15l-.75-.25m.5-.5.5-.5L3 14v1H2m1-1h1v1H3m1-1h1v1H4m1-1 .75-.25.5.5L6 15H5m1.25-.75.5-.5.5.5-.5.5L6 15"/>
</svg>
