<svg xmlns="http://www.w3.org/2000/svg" viewBox="0 0 16 16">
  <path fill="#dbe6e9" d="M6.25 8.25 7 8l-.25.75L6 9m1-1h1v1l-.75.25-.5-.5M8 8h1l.25.75-.5.5L8 9m1-1 .75.25L10 9l-.75-.25M6 9l.75-.25.5.5L7 10H6m2.75-.75.5-.5L10 9v1H9m-3 0h1l.25.75-.5.5L6 11m3-1h1v1l-.75.25-.5-.5M6 11l.75.25L7 12l-.75-.25m.5-.5.5-.5L8 11v1H7m1-1 .75-.25.5.5L9 12H8m1.25-.75L10 11l-.25.75L9 12"/>
  <path fill="#8f8e8a" d="M1.25 6.25h.5l.5.5-.5.5L1 7m13.25-.75h.5L15 7l-.75.25-.5-.5M1 7l.75.25L2 8H1m.75-.75.5-.5.5.5.5.5-.5.5L2 8m11.25-.75.5-.5.5.5L14 8l-.75.25-.5-.5m1.5-.5L15 7v1h-1M1 8h1v1H1m1-1 .75.25L3 9H2m.75-.75.5-.5L4 8v1H3m1-1 .75.25L5 9H4m7.25-.75L12 8v1h-1m1-1 .75-.25.5.5L13 9h-1m1.25-.75L14 8v1h-1m1-1h1v1h-1M1 9h1l.25.75-.5.5-.5-.5M2 9h1v1l-.75-.25M3 9h1v1H3m1-1h1v1H4m7-1h1v1h-1m1-1h1v1h-1m1-1h1l-.25.75L13 10m1-1h1l-.25.75-.5.5-.5-.5m-12 .5.5-.5L3 10v1l-.75-.25M3 10h1v1H3m1-1h1l-.25.75L4 11m7-1h1v1l-.75-.25M12 10h1v1h-1m1-1 .75-.25.5.5-.5.5L13 11"/>
  <path fill="#5c5b5b" d="M4.25 4.25 5 4v1l-.75.25-.5-.5M5 4h1v1H5m1-1h1v1H6m1-1h1v1H7m1-1h1v1H8m1-1h1v1H9m1-1h1v1h-1m1-1 .75.25.5.5-.5.5L11 5m-8.75.25L3 5v1l-.75-.25M3 5l.75-.25.5.5v.5l-.5.5L3 6m1.25-.75L5 5v1l-.75-.25M5 5h1v1H5m1-1h1v1H6m1-1h1v1H7m1-1h1v1H8m1-1h1v1H9m1-1h1v1h-1m1-1 .75.25v.5L11 6m.75-.75.5-.5L13 5v1l-.75.25-.5-.5M13 5l.75.25v.5L13 6m-9.25.25.5-.5L5 6v1l-.75-.25M5 6h1v1H5m1-1h1v1H6m1-1h1v1H7m1-1h1v1H8m1-1h1v1H9m1-1h1v1h-1m1-1 .75-.25.5.5-.5.5L11 7"/>
</svg>
