<svg xmlns="http://www.w3.org/2000/svg" viewBox="0 0 16 16">
  <path fill="#d1e8e9" d="M10.25 1.25h.5L11 2h-1m2.25-.75h.5L13 2h-1m-2 0h1l.25.75-.5.5L10 3m2-1h1l.25.75-.5.5h-.5l-.5-.5m2.5-.5h.5L15 3l-.75.25-.5-.5M10 3l.75.25L11 4h-1m.75-.75.5-.5h.5l.5.5L12 4h-1m1.25-.75h.5L13 4h-1m.75-.75.5-.5h.5l.5.5L14 4h-1m1.25-.75L15 3v1h-1m-5.75.25h.5l.5.5-.5.5L8 5m2-1h1v1l-.75.25-.5-.5M11 4h1v1h-1m1-1h1v1h-1m1-1h1v1h-1m1-1h1v1h-1m-10.75.25h.5L4 6H3m2.25-.75h.5L6 6H5m3-1 .75.25.5.5-.5.5-.5-.5m.5-.5.5-.5h.5l.5.5-.5.5h-.5m1-.5L11 5l.25.75-.5.5h-.5l-.5-.5M11 5h1v1l-.75-.25M12 5h1v1h-1m1-1h1v1h-1m1-1h1v1h-1m-12.75.25h.5l.5.5-.5.5L1 7m2-1h1l.25.75-.5.5h-.5l-.5-.5M5 6h1v1l-.75.25-.5-.5m4-.5.5-.5h.5l.5.5-.5.5h-.5m1.5-.5.5-.5L12 6v1l-.75.25-.5-.5M12 6h1v1h-1m1-1h1v1h-1m1-1h1v1h-1M1 7l.75.25L2 8H1m.75-.75.5-.5h.5l.5.5L3 8H2m1.25-.75h.5L4 8H3m.75-.75.5-.5h.5l.5.5L5 8H4m1.25-.75L6 7v1H5m5.25-.75.5-.5.5.5L11 8h-1m1.25-.75L12 7v1h-1m1-1h1v1h-1m1-1h1v1h-1m1-1h1v1h-1M1 8h1v1H1m1-1h1v1H2m1-1h1v1H3m1-1h1v1H4m1-1h1l.25.75-.5.5L5 9m2.25-.75h.5L8 9l-.75.25-.5-.5M10 8h1l-.25.75L10 9m1-1h1v1l-.75.25-.5-.5M12 8h1v1h-1m1-1h1l.25.75-.5.5L13 9m1-1h1v1l-.75-.25M1 9h1v1H1m1-1h1v1H2m1-1h1v1H3m1-1h1l-.25.75L4 10m1-1 .75.25.5.5-.5.5h-.5l-.5-.5m1-.5.5-.5h.5l.5.5-.5.5h-.5m1-.5L8 9l-.25.75-.5.5-.5-.5M10 9l.75-.25.5.5v.5l-.5.5-.5-.5m3.5-.5.5-.5L15 9l-.25.75-.5.5-.5-.5M1 10h1v1H1m1-1h1v1H2m1-1h1v1H3m1-1 .75-.25.5.5v.5l-.5.5L4 11m1.75-.75.5-.5h.5l.5.5-.5.5h-.5m4.5-.5.5-.5.75.25v1l-.75-.25M12 10h1v1h-1m1-1 .75-.25.5.5-.5.5L13 11M1 11h1v1H1m1-1h1v1H2m1-1h1v1H3m1-1 .75.25L5 12H4m.75-.75.5-.5.5.5L6 12H5m-4 0h1l-.25.75L1 13m1-1h1v1l-.75.25-.5-.5M3 12h1v1H3m1-1h1l.25.75-.5.5L4 13m1-1h1v1l-.75-.25M1 13l.75-.25.5.5v.5l-.5.5-.5-.5m3.5-.5.5-.5L6 13l-.25.75-.5.5-.5-.5m-3 .5.5-.5L3 14v1l-.75-.25M3 14h1v1H3m1-1 .75-.25.5.5-.5.5L4 15"/>
</svg>
